<svg xmlns="http://www.w3.org/2000/svg" width="545" height="153" fill="none" viewBox="0 0 545 153">
  <g clipPath="url(#a)">
    <path fill="#FD0" stroke="#0D0C23" stroke-width="3" d="M1.5 24.48C1.5 11.789 11.789 1.5 24.48 1.5H520.2c12.692 0 22.98 10.289 22.98 22.98v104.04c0 12.692-10.288 22.98-22.98 22.98H24.48c-12.691 0-22.98-10.288-22.98-22.98V24.48Z"/>
    <path fill="#0D0C22" d="m109.522 50.318-.067-.04-.156-.047a.372.372 0 0 0 .223.087Zm.985 6.995-.075.021.075-.02Zm-.958-7.007a.117.117 0 0 1-.025-.006.046.046 0 0 0 0 .017.055.055 0 0 0 .025-.01Z"/>
    <path fill="#0D0C22" d="M109.523 50.32h.013v-.007l-.013.008Zm.924 6.98.113-.064.042-.024.038-.04a.652.652 0 0 0-.193.129Zm-.732-6.829-.111-.105-.075-.04a.314.314 0 0 0 .186.145ZM81.88 118.353a.573.573 0 0 0-.225.174l.07-.045c.047-.043.114-.095.155-.129Zm16.166-3.18c0-.1-.05-.082-.037.274 0-.029.012-.058.017-.086.006-.063.012-.125.02-.188Zm-1.67 3.18a.574.574 0 0 0-.225.174l.07-.045c.047-.043.114-.095.155-.129Zm-25.887.757a.479.479 0 0 0-.238-.111c.072.035.143.069.19.095l.048.016Zm-2.559-2.453a.754.754 0 0 0-.093-.295c.036.094.066.191.09.29l.003.005Z"/>
    <path fill="#fff" d="M85.137 72.774c-3.517 1.505-7.509 3.213-12.682 3.213a24.008 24.008 0 0 1-6.402-.883l3.578 36.734a6.136 6.136 0 0 0 6.117 5.632s5.073.264 6.766.264c1.822 0 7.285-.264 7.285-.264a6.139 6.139 0 0 0 6.116-5.632l3.832-40.592c-1.712-.585-3.44-.974-5.389-.974-3.37-.001-6.085 1.16-9.221 2.502Z"/>
    <path fill="#0D0C22" d="m54.984 57.102.061.057.04.023a.605.605 0 0 0-.1-.08Z"/>
    <path fill="#0D0C22" d="m116.299 53.712-.538-2.718c-.484-2.438-1.581-4.742-4.084-5.623-.802-.282-1.713-.404-2.328-.987-.615-.584-.797-1.49-.939-2.33-.263-1.543-.511-3.087-.781-4.627-.233-1.324-.418-2.811-1.025-4.026-.79-1.63-2.43-2.584-4.061-3.215a23.412 23.412 0 0 0-2.555-.79c-4.074-1.076-8.358-1.47-12.55-1.696a105.365 105.365 0 0 0-15.095.25c-3.736.34-7.67.751-11.22 2.044-1.298.473-2.636 1.04-3.622 2.043-1.21 1.231-1.606 3.136-.722 4.672.628 1.091 1.693 1.862 2.822 2.371a22.888 22.888 0 0 0 4.581 1.492c4.387.97 8.93 1.35 13.412 1.512 4.967.2 9.942.038 14.886-.486a84.63 84.63 0 0 0 3.66-.484c1.435-.22 2.356-2.095 1.933-3.402-.506-1.563-1.865-2.169-3.403-1.933-.226.036-.451.069-.678.102l-.163.023a82.734 82.734 0 0 1-4.798.469c-2.421.169-4.85.247-7.276.25-2.384 0-4.77-.067-7.149-.223a91.048 91.048 0 0 1-3.248-.272 78.703 78.703 0 0 1-1.472-.166l-.466-.059-.102-.014-.483-.07a50.894 50.894 0 0 1-2.953-.527.444.444 0 0 1 0-.867h.018c.847-.18 1.7-.335 2.557-.469.285-.045.572-.089.859-.132h.008c.536-.035 1.075-.131 1.608-.195 4.642-.482 9.311-.647 13.976-.492a94.26 94.26 0 0 1 6.781.428c.485.05.967.103 1.45.162.184.022.37.049.555.071l.374.054c1.091.162 2.176.36 3.255.592 1.6.347 3.653.46 4.365 2.213.226.556.329 1.173.454 1.757l.16.744a.287.287 0 0 1 .009.041l1.131 5.27a.96.96 0 0 1-.811 1.158h-.011l-.23.03-.228.031a139.886 139.886 0 0 1-6.451.685 153.066 153.066 0 0 1-12.9.519 151.246 151.246 0 0 1-17.3-1.006c-.623-.074-1.244-.153-1.866-.233.482.062-.35-.048-.52-.072-.394-.055-.79-.112-1.185-.172-1.326-.2-2.645-.444-3.969-.659-1.6-.263-3.131-.132-4.579.659a6.661 6.661 0 0 0-2.757 2.858c-.624 1.291-.81 2.697-1.09 4.084-.279 1.387-.714 2.88-.549 4.304.354 3.073 2.503 5.57 5.593 6.13 2.908.526 5.831.953 8.762 1.317a161.905 161.905 0 0 0 37.513.216 1.976 1.976 0 0 1 2.182 2.165l-.293 2.843a1089465.02 1089465.02 0 0 1-3.624 35.325l-.526 5.095c-.17 1.671-.193 3.396-.51 5.048-.5 2.597-2.26 4.193-4.826 4.776a33.669 33.669 0 0 1-7.163.838c-2.673.014-5.345-.104-8.017-.09-2.854.016-6.349-.247-8.551-2.371-1.935-1.865-2.203-4.786-2.466-7.311-.351-3.343-.7-6.686-1.045-10.029L64.09 82.021l-1.253-12.026-.062-.595c-.15-1.435-1.166-2.839-2.766-2.767-1.37.061-2.927 1.226-2.767 2.767l.929 8.915 1.92 18.443c.548 5.239 1.094 10.478 1.638 15.718.105 1.004.204 2.011.315 3.014.602 5.486 4.791 8.442 9.979 9.274 3.03.488 6.133.588 9.208.638 3.941.063 7.922.215 11.799-.499 5.745-1.054 10.055-4.89 10.67-10.841l.527-5.154 1.75-17.053 1.904-18.574.874-8.513a1.976 1.976 0 0 1 1.591-1.737c1.643-.32 3.213-.867 4.382-2.117 1.86-1.99 2.23-4.586 1.572-7.202Zm-61.794 1.836c.025-.012-.02.203-.04.303-.005-.151.003-.286.04-.303Zm.16 1.233c.013-.009.052.044.093.107-.062-.058-.101-.101-.095-.107h.002Zm.156.207c.057.096.087.157 0 0Zm.315.256h.008c0 .009.015.018.02.027a.21.21 0 0 0-.03-.027h.002Zm55.133-.382c-.59.56-1.48.822-2.358.952-9.854 1.462-19.851 2.203-29.813 1.876-7.129-.244-14.183-1.035-21.241-2.033-.692-.097-1.441-.224-1.917-.733-.896-.962-.456-2.899-.223-4.06.214-1.065.622-2.484 1.888-2.635 1.976-.232 4.27.602 6.226.898 2.353.36 4.716.647 7.087.863 10.12.922 20.41.779 30.484-.57 1.836-.247 3.666-.534 5.489-.86 1.625-.292 3.425-.838 4.407.844.673 1.146.762 2.68.658 3.974a2.213 2.213 0 0 1-.689 1.484h.002Z"/>
    <path fill="#0D0C23" fill-rule="evenodd" d="M170.036 84.24a9.048 9.048 0 0 1-2.373 2.866c-1.007.812-2.181 1.473-3.524 1.982a17.72 17.72 0 0 1-4.051 1.027 13.65 13.65 0 0 1-3.955-.048c-1.279-.206-2.367-.628-3.261-1.266l1.008-10.461c.926-.318 2.092-.645 3.499-.98a32.006 32.006 0 0 1 4.339-.716 18.59 18.59 0 0 1 4.219.048c1.326.175 2.373.597 3.14 1.266.416.382.768.796 1.055 1.242.288.446.463.908.528 1.385.159 1.338-.048 2.556-.624 3.655Zm-14.623-22.285c.671-.414 1.479-.781 2.421-1.1.943-.317 1.91-.541 2.901-.668.99-.127 1.957-.144 2.901-.048.942.095 1.774.358 2.493.788.719.43 1.254 1.051 1.606 1.863.351.812.447 1.84.287 3.081-.127.988-.52 1.824-1.174 2.508-.655.686-1.455 1.258-2.397 1.72-.943.463-1.942.829-2.996 1.098a25.42 25.42 0 0 1-3.045.598 29.74 29.74 0 0 1-2.541.239 40.93 40.93 0 0 1-1.415.048l.959-10.127Zm19.801 15.525a9.78 9.78 0 0 0-2.061-2.938 7.729 7.729 0 0 0-3.069-1.84c.511-.413 1.015-1.066 1.511-1.958.495-.89.918-1.863 1.27-2.914.351-1.051.592-2.11.719-3.177.127-1.066.079-1.982-.143-2.747-.545-1.91-1.399-3.407-2.566-4.49a9.518 9.518 0 0 0-4.075-2.246c-1.551-.412-3.26-.5-5.13-.262-1.87.239-3.78.708-5.729 1.409 0-.159.016-.326.048-.501.031-.175.047-.358.047-.55 0-.477-.239-.89-.719-1.242a3.324 3.324 0 0 0-1.653-.62c-.624-.064-1.231.07-1.823.405-.591.335-.999.949-1.222 1.839a1341.43 1341.43 0 0 0-.767 8.933c-.256 3.09-.528 6.211-.815 9.364-.288 3.153-.576 6.282-.863 9.387-.288 3.105-.576 6.09-.863 8.957.096.86.335 1.529.719 2.006.383.478.831.765 1.342.86.511.096 1.047.007 1.606-.263.559-.27 1.047-.74 1.463-1.409 1.278.7 2.717 1.155 4.315 1.362 1.598.207 3.219.207 4.867 0a22.784 22.784 0 0 0 4.865-1.17 20.578 20.578 0 0 0 4.363-2.15c1.311-.86 2.413-1.84 3.309-2.938.894-1.1 1.486-2.286 1.773-3.559a12.44 12.44 0 0 0 .24-3.917 11.301 11.301 0 0 0-.959-3.631Zm46.775 25.222a33.248 33.248 0 0 1-.743 3.321 21.883 21.883 0 0 1-1.126 3.177c-.432.955-.911 1.726-1.438 2.316-.528.589-1.096.836-1.703.741-.479-.065-.783-.367-.91-.908-.129-.542-.129-1.211 0-2.006.127-.797.374-1.697.742-2.7a23.525 23.525 0 0 1 3.141-5.828c.671-.907 1.374-1.664 2.109-2.269.16.191.232.669.216 1.434-.017.764-.112 1.672-.288 2.722Zm16.254-20.732a2.402 2.402 0 0 0-1.583-.812c-.623-.064-1.255.286-1.893 1.05a11.245 11.245 0 0 1-1.583 2.198 20.228 20.228 0 0 1-1.989 1.91 22.876 22.876 0 0 1-1.966 1.481c-.623.415-1.111.717-1.462.908a29.506 29.506 0 0 1-.216-3.296 53.282 53.282 0 0 1 .072-3.582c.095-1.72.295-3.456.599-5.208a33.928 33.928 0 0 1 1.319-5.16c0-.89-.209-1.615-.624-2.173-.416-.557-.919-.908-1.51-1.05-.592-.144-1.198-.064-1.822.238-.623.303-1.158.853-1.606 1.648-.383 1.052-.823 2.23-1.318 3.535a63.235 63.235 0 0 1-1.678 3.99 40.366 40.366 0 0 1-2.086 3.94 20.747 20.747 0 0 1-2.517 3.392c-.911.988-1.902 1.76-2.972 2.317a6.659 6.659 0 0 1-3.476.74c-.576-.159-.992-.588-1.247-1.29-.256-.7-.408-1.576-.455-2.627-.048-1.05 0-2.205.143-3.463.144-1.258.336-2.508.576-3.75a58.5 58.5 0 0 1 .79-3.535c.288-1.114.559-2.054.815-2.819.384-.923.384-1.696 0-2.317-.383-.62-.91-1.034-1.581-1.242-.671-.207-1.375-.198-2.11.024-.735.223-1.263.717-1.582 1.48a37.025 37.025 0 0 0-1.487 4.396 45.37 45.37 0 0 0-1.078 5.04 37.752 37.752 0 0 0-.456 5.16c-.002.11.003.216.003.326-.697 1.852-1.361 3.251-1.992 4.188-.815 1.21-1.735 1.736-2.757 1.576-.449-.191-.743-.637-.887-1.338-.145-.7-.192-1.56-.145-2.58a35.64 35.64 0 0 1 .36-3.463c.193-1.29.431-2.627.719-4.012.288-1.386.592-2.778.911-4.18.32-1.401.607-2.723.864-3.966-.032-1.114-.36-1.966-.984-2.555-.622-.589-1.494-.82-2.612-.693-.767.319-1.335.733-1.702 1.242-.368.51-.664 1.163-.887 1.959-.129.414-.32 1.242-.576 2.484a109.757 109.757 0 0 1-.983 4.275 91.106 91.106 0 0 1-1.414 5.04c-.543 1.752-1.151 3.337-1.821 4.754-.672 1.417-1.407 2.555-2.206 3.415-.799.86-1.662 1.21-2.589 1.051-.512-.096-.839-.621-.983-1.576-.144-.956-.167-2.133-.072-3.535.096-1.401.288-2.938.575-4.61.288-1.672.583-3.256.887-4.754.304-1.496.584-2.819.84-3.965.255-1.146.431-1.91.527-2.292 0-.924-.209-1.664-.623-2.222-.416-.556-.919-.907-1.511-1.05-.592-.144-1.199-.064-1.821.238-.624.303-1.159.853-1.607 1.648-.16.86-.368 1.855-.623 2.986-.256 1.13-.503 2.293-.743 3.487s-.464 2.365-.671 3.511a45.328 45.328 0 0 0-.456 3.01c-.064.669-.136 1.49-.215 2.46a37.16 37.16 0 0 0-.121 3.081c0 1.084.08 2.158.241 3.225.159 1.067.447 2.047.862 2.938a5.78 5.78 0 0 0 1.751 2.197c.75.573 1.701.892 2.852.956 1.182.063 2.213-.024 3.093-.263a7.536 7.536 0 0 0 2.397-1.123 10.521 10.521 0 0 0 1.966-1.815c.59-.7 1.174-1.465 1.749-2.293.544 1.21 1.247 2.15 2.11 2.819.863.668 1.774 1.067 2.733 1.194.958.126 1.934-.008 2.925-.406.99-.398 1.885-1.075 2.684-2.03a14.824 14.824 0 0 0 1.489-1.99c.198.346.408.678.645.986.783 1.02 1.846 1.72 3.189 2.102 1.438.382 2.843.447 4.218.192a13.454 13.454 0 0 0 3.931-1.386 18.582 18.582 0 0 0 3.477-2.412 21.886 21.886 0 0 0 2.804-2.939 47.766 47.766 0 0 0-.048 2.079c0 .653-.016 1.36-.047 2.126-1.599 1.115-3.109 2.452-4.531 4.012a31.94 31.94 0 0 0-3.74 4.992c-1.071 1.767-1.91 3.559-2.516 5.374-.608 1.816-.904 3.512-.888 5.089.016 1.576.391 2.953 1.127 4.131.734 1.179 1.933 2.022 3.595 2.532 1.727.542 3.244.557 4.556.048 1.31-.51 2.452-1.354 3.427-2.532.975-1.178 1.774-2.603 2.398-4.275a34.713 34.713 0 0 0 1.486-5.231c.367-1.815.599-3.6.695-5.35.096-1.752.096-3.314 0-4.683 2.749-1.146 5.002-2.595 6.76-4.347 1.758-1.75 3.212-3.598 4.363-5.541.351-.478.471-1.05.36-1.72a3.337 3.337 0 0 0-.815-1.72Zm60.481-3.057c.096-.732.24-1.504.431-2.316.192-.813.432-1.601.72-2.365a9.166 9.166 0 0 1 1.007-1.983c.383-.557.791-.955 1.222-1.194.432-.238.87-.215 1.319.071.479.288.774.892.887 1.816.111.924 0 1.911-.336 2.962-.336 1.051-.935 2.038-1.798 2.962-.863.924-2.03 1.528-3.5 1.815-.064-.445-.048-1.035.048-1.767Zm16.612 1.959c-.527-.159-1.03-.175-1.51-.048-.479.128-.783.462-.91 1.004-.257 1.019-.665 2.062-1.224 3.129a16.434 16.434 0 0 1-2.06 3.033c-.815.956-1.735 1.8-2.757 2.532-1.024.733-2.094 1.258-3.213 1.576-1.119.351-2.046.39-2.78.12a3.482 3.482 0 0 1-1.75-1.385c-.432-.653-.744-1.441-.935-2.365a16.719 16.719 0 0 1-.336-2.867c1.822.128 3.444-.198 4.867-.979a11.483 11.483 0 0 0 3.619-3.105 14.077 14.077 0 0 0 2.253-4.347c.511-1.608.799-3.209.863-4.801.032-1.497-.191-2.763-.671-3.798-.479-1.034-1.127-1.84-1.942-2.412-.814-.574-1.75-.908-2.804-1.003-1.054-.096-2.126.047-3.213.43a7.823 7.823 0 0 0-3.332 2.173 13.569 13.569 0 0 0-2.277 3.487 22.03 22.03 0 0 0-1.438 4.276 38.386 38.386 0 0 0-.767 4.515 44.503 44.503 0 0 0-.248 3.826l-.208.472a28.698 28.698 0 0 1-1.726 3.32c-.655 1.084-1.383 1.992-2.181 2.724-.799.733-1.63.987-2.493.764-.512-.127-.791-.717-.839-1.767-.048-1.052.007-2.357.167-3.918.16-1.56.344-3.249.552-5.064a46 46 0 0 0 .311-5.207c0-1.433-.272-2.81-.815-4.132-.544-1.32-1.287-2.42-2.229-3.296a7.07 7.07 0 0 0-3.284-1.743c-1.247-.288-2.589-.096-4.027.572-1.439.67-2.582 1.609-3.428 2.819a35.2 35.2 0 0 0-2.326 3.822 11.35 11.35 0 0 0-1.127-2.843 9.17 9.17 0 0 0-1.821-2.293 8.251 8.251 0 0 0-2.421-1.528 7.418 7.418 0 0 0-2.83-.55 6.42 6.42 0 0 0-2.66.55 9.286 9.286 0 0 0-2.23 1.409 12.397 12.397 0 0 0-1.822 1.935 22.675 22.675 0 0 0-1.438 2.125 46.287 46.287 0 0 0-.215-2.174c-.081-.62-.225-1.146-.432-1.575a2.209 2.209 0 0 0-.887-.98c-.384-.222-.927-.334-1.63-.334-.352 0-.704.071-1.055.214a3.022 3.022 0 0 0-.935.598 2.527 2.527 0 0 0-.623.931c-.144.366-.183.789-.12 1.266.032.351.12.772.264 1.266.143.494.279 1.14.407 1.935.128.796.232 1.76.312 2.89.08 1.131.103 2.517.072 4.157-.033 1.64-.152 3.558-.36 5.756-.208 2.197-.536 4.745-.983 7.643-.064.669.192 1.21.768 1.624a3.88 3.88 0 0 0 1.965.717 3.922 3.922 0 0 0 2.086-.382c.655-.32 1.031-.876 1.126-1.672.096-1.497.28-3.09.552-4.778a65.808 65.808 0 0 1 1.007-5.015 53.007 53.007 0 0 1 1.366-4.73c.511-1.497 1.079-2.818 1.702-3.965.624-1.146 1.271-2.061 1.942-2.746s1.374-1.028 2.11-1.028c.894 0 1.589.406 2.085 1.218.495.813.846 1.856 1.055 3.129.207 1.275.303 2.669.288 4.18a64.572 64.572 0 0 1-.192 4.371 75.306 75.306 0 0 1-.384 3.75 129.234 129.234 0 0 1-.311 2.27c0 .733.279 1.313.838 1.743a3.72 3.72 0 0 0 1.87.765 3.173 3.173 0 0 0 1.942-.383c.607-.334.959-.899 1.055-1.696a70.785 70.785 0 0 1 1.318-6.902c.559-2.309 1.199-4.379 1.918-6.21.719-1.832 1.518-3.329 2.397-4.49.879-1.163 1.814-1.745 2.805-1.745.511 0 .903.351 1.174 1.051.272.7.408 1.656.408 2.866 0 .892-.072 1.808-.215 2.748-.145.939-.312 1.91-.504 2.914a59.076 59.076 0 0 0-.504 3.08 24.447 24.447 0 0 0-.215 3.297c0 .796.08 1.72.24 2.77.159 1.051.462 2.047.91 2.986a6.965 6.965 0 0 0 1.847 2.389c.783.652 1.781.98 2.995.98 1.823 0 3.436-.391 4.843-1.171a12.134 12.134 0 0 0 3.62-3.057c.052-.066.1-.136.151-.202.077.186.145.383.232.56.687 1.401 1.622 2.484 2.805 3.249 1.182.764 2.573 1.186 4.172 1.266 1.597.078 3.339-.216 5.226-.885 1.405-.51 2.628-1.146 3.667-1.91a13.703 13.703 0 0 0 2.804-2.795c.832-1.099 1.59-2.365 2.278-3.798a64.308 64.308 0 0 0 2.085-4.92c.128-.51.008-.963-.359-1.362a2.968 2.968 0 0 0-1.343-.836Zm26.057-5.329a47.17 47.17 0 0 1-.647 3.106 38.554 38.554 0 0 1-1.031 3.511 15.844 15.844 0 0 1-1.534 3.272c-.607.972-1.303 1.744-2.085 2.317-.784.573-1.686.812-2.709.716-.512-.063-.904-.413-1.175-1.05-.272-.637-.415-1.45-.432-2.437-.016-.986.072-2.07.264-3.248a19.95 19.95 0 0 1 .888-3.464c.399-1.13.886-2.173 1.461-3.129.576-.955 1.239-1.696 1.99-2.221a3.966 3.966 0 0 1 2.469-.74c.895.031 1.854.477 2.877 1.337a166.93 166.93 0 0 1-.336 2.03Zm17.044 3.655a2.066 2.066 0 0 0-1.534-.167c-.527.143-.903.63-1.126 1.457-.128.892-.416 1.942-.863 3.153-.448 1.21-1 2.357-1.654 3.439-.656 1.083-1.407 1.983-2.254 2.7-.847.716-1.75 1.043-2.708.978-.8-.063-1.36-.469-1.678-1.217-.321-.749-.488-1.688-.504-2.82-.017-1.129.096-2.403.335-3.82.24-1.417.528-2.826.863-4.229.336-1.4.68-2.746 1.032-4.036.351-1.29.638-2.38.863-3.272.255-.797.175-1.473-.24-2.031a3.467 3.467 0 0 0-1.558-1.194 3.52 3.52 0 0 0-1.895-.19c-.639.11-1.054.453-1.246 1.026-1.886-1.624-3.7-2.5-5.441-2.627-1.743-.128-3.349.255-4.819 1.146-1.471.892-2.773 2.181-3.907 3.87a24.462 24.462 0 0 0-2.758 5.517 24.437 24.437 0 0 0-1.318 6.091c-.176 2.07-.04 3.958.408 5.661.448 1.704 1.238 3.098 2.373 4.18 1.134 1.083 2.677 1.624 4.627 1.624a6.15 6.15 0 0 0 2.493-.525c.798-.35 1.534-.765 2.205-1.242.671-.478 1.262-.98 1.775-1.505.51-.526.91-.963 1.198-1.314.223 1.147.591 2.119 1.103 2.914.51.796 1.094 1.45 1.749 1.959a6.933 6.933 0 0 0 2.062 1.123 6.607 6.607 0 0 0 2.085.358c1.503 0 2.908-.51 4.22-1.53 1.31-1.017 2.485-2.268 3.524-3.749a23.858 23.858 0 0 0 2.564-4.682c.672-1.64 1.119-3.097 1.343-4.371.224-.478.183-.979-.12-1.504-.304-.526-.703-.916-1.199-1.171Zm86.301 26.373c-.271 1.082-.695 1.999-1.271 2.747-.575.748-1.294 1.138-2.157 1.171-.543.031-.959-.256-1.247-.86-.287-.606-.487-1.386-.599-2.341a24.79 24.79 0 0 1-.144-3.201c.016-1.178.064-2.341.144-3.487a72.91 72.91 0 0 1 .288-3.2c.111-.989.199-1.752.263-2.294 1.087.128 1.991.597 2.709 1.41.719.811 1.271 1.775 1.654 2.89.384 1.114.607 2.317.672 3.606.063 1.29-.041 2.476-.312 3.559Zm-17.356 0c-.271 1.082-.695 1.999-1.27 2.747-.575.748-1.295 1.138-2.158 1.171-.543.031-.958-.256-1.246-.86-.288-.606-.488-1.386-.599-2.341a24.436 24.436 0 0 1-.144-3.201c.015-1.178.063-2.341.144-3.487a72.98 72.98 0 0 1 .287-3.2c.112-.989.199-1.752.264-2.294 1.086.128 1.99.597 2.708 1.41.72.811 1.271 1.775 1.655 2.89.384 1.114.607 2.317.671 3.606.063 1.29-.041 2.476-.312 3.559Zm-17.81-27.133a14.27 14.27 0 0 1-.217 2.03c-.112.59-.263.963-.455 1.122-.352-.191-.784-.684-1.295-1.481a10.178 10.178 0 0 1-1.199-2.7 7.52 7.52 0 0 1-.263-2.961c.111-.971.615-1.727 1.51-2.27.351-.19.655-.119.911.216.256.334.463.82.624 1.457.159.638.27 1.37.335 2.198.064.828.08 1.624.049 2.388Zm-4.244 9.53a8.542 8.542 0 0 1-1.654 1.36 7.59 7.59 0 0 1-1.87.86c-.64.192-1.215.24-1.726.144-1.438-.286-2.541-.908-3.308-1.863-.767-.955-1.255-2.078-1.462-3.367-.208-1.29-.185-2.668.072-4.133a15.409 15.409 0 0 1 1.294-4.084c.607-1.258 1.343-2.341 2.205-3.249.863-.907 1.806-1.472 2.829-1.696a16.538 16.538 0 0 0-.384 5.04 14.1 14.1 0 0 0 1.247 4.896c.447.925.983 1.768 1.606 2.532a8.751 8.751 0 0 0 2.278 1.96c-.256.54-.632 1.074-1.127 1.6Zm53.05-9.053a23.01 23.01 0 0 1 .432-2.318c.191-.811.431-1.6.718-2.364a9.184 9.184 0 0 1 1.008-1.982c.384-.557.79-.956 1.222-1.195.432-.238.871-.215 1.318.072.48.287.775.892.887 1.815.112.924 0 1.91-.335 2.962-.336 1.051-.935 2.039-1.798 2.962-.862.924-2.03 1.529-3.5 1.815-.064-.445-.048-1.034.048-1.767Zm19.322 0c.096-.732.239-1.505.431-2.318.192-.811.432-1.6.72-2.364.287-.764.622-1.425 1.006-1.982.384-.557.792-.956 1.223-1.195.432-.238.871-.215 1.318.072.48.287.775.892.887 1.815.112.924 0 1.91-.335 2.962-.336 1.051-.935 2.039-1.798 2.962-.863.924-2.03 1.529-3.5 1.815-.064-.445-.048-1.034.048-1.767Zm17.955 2.795a2.97 2.97 0 0 0-1.342-.837c-.528-.159-1.031-.174-1.511-.047-.479.127-.784.462-.911 1.003-.256 1.02-.663 2.062-1.222 3.128a16.402 16.402 0 0 1-2.062 3.034c-.815.955-1.734 1.8-2.756 2.532-1.024.733-2.094 1.259-3.212 1.576-1.12.352-2.047.391-2.782.12a3.494 3.494 0 0 1-1.75-1.385c-.431-.653-.742-1.44-.935-2.365a16.704 16.704 0 0 1-.335-2.866c1.822.128 3.444-.198 4.866-.98a11.501 11.501 0 0 0 3.621-3.105 14.067 14.067 0 0 0 2.252-4.347c.511-1.608.799-3.208.864-4.8.031-1.498-.193-2.764-.672-3.799-.479-1.034-1.126-1.84-1.941-2.412-.816-.574-1.75-.908-2.806-1.004-1.054-.095-2.125.049-3.212.43a7.826 7.826 0 0 0-3.331 2.174 13.592 13.592 0 0 0-2.278 3.487 22.036 22.036 0 0 0-1.439 4.276 38.373 38.373 0 0 0-.766 4.514 44.152 44.152 0 0 0-.259 4.129 16.402 16.402 0 0 1-2.451 3.825c-.814.955-1.734 1.8-2.756 2.532-1.023.733-2.094 1.259-3.212 1.576-1.12.352-2.046.391-2.781.12a3.486 3.486 0 0 1-1.75-1.385c-.431-.653-.743-1.44-.935-2.365a16.704 16.704 0 0 1-.336-2.866c1.822.128 3.444-.198 4.867-.98a11.494 11.494 0 0 0 3.619-3.105 14.047 14.047 0 0 0 2.253-4.347c.511-1.608.8-3.208.863-4.8.032-1.498-.191-2.764-.67-3.799-.48-1.034-1.128-1.84-1.943-2.412-.815-.574-1.749-.908-2.804-1.004-1.055-.095-2.126.049-3.212.43a7.823 7.823 0 0 0-3.332 2.174 13.592 13.592 0 0 0-2.278 3.487 22.102 22.102 0 0 0-1.438 4.276 38.38 38.38 0 0 0-.767 4.514 46.827 46.827 0 0 0-.196 2.44c-.309.262-.61.526-.931.785a28.771 28.771 0 0 1-3.476 2.412 21.541 21.541 0 0 1-3.787 1.768c-1.312.462-2.654.74-4.028.836l2.973-31.72c.192-.67.096-1.258-.288-1.767a2.907 2.907 0 0 0-1.486-1.051c-.607-.192-1.255-.175-1.942.047-.688.224-1.254.733-1.702 1.528-.224 1.211-.456 2.867-.695 4.969a390.25 390.25 0 0 0-.719 6.88c-.24 2.483-.48 5.047-.719 7.69-.24 2.644-.448 5.112-.624 7.405l-.022.294c-.28.237-.551.475-.841.709a28.771 28.771 0 0 1-3.476 2.412 21.508 21.508 0 0 1-3.787 1.768c-1.311.462-2.654.74-4.028.836l2.973-31.72c.192-.67.096-1.258-.287-1.767-.384-.51-.88-.86-1.487-1.051-.607-.192-1.255-.175-1.942.047-.687.224-1.254.733-1.702 1.528-.224 1.211-.455 2.867-.694 4.969a390.22 390.22 0 0 0-.72 6.88c-.24 2.483-.479 5.047-.719 7.69a535.86 535.86 0 0 0-.623 7.405l-.011.134a11.43 11.43 0 0 1-1.644.606 8.715 8.715 0 0 1-2.061.311c.128-.574.231-1.21.311-1.911.08-.7.145-1.433.193-2.198.048-.763.063-1.528.048-2.293a27.754 27.754 0 0 0-.12-2.102 18.082 18.082 0 0 0-.887-3.893c-.432-1.226-1.015-2.252-1.75-3.081a5.423 5.423 0 0 0-2.758-1.672c-1.102-.287-2.389-.191-3.858.286-2.175-.286-4.132-.087-5.874.598a12.842 12.842 0 0 0-4.531 2.985c-1.278 1.307-2.325 2.843-3.14 4.61a19.738 19.738 0 0 0-1.63 5.446c-.115.79-.171 1.576-.188 2.36-.495 1.01-1.037 1.892-1.634 2.632-.847 1.051-1.726 1.911-2.637 2.58s-1.814 1.178-2.708 1.529c-.896.35-1.695.59-2.398.716-.831.16-1.63.176-2.397.048-.767-.127-1.471-.493-2.109-1.099-.512-.445-.904-1.162-1.175-2.15-.272-.987-.431-2.108-.479-3.367-.048-1.258 0-2.572.143-3.941.144-1.37.391-2.668.743-3.894s.798-2.324 1.343-3.297c.542-.97 1.182-1.663 1.918-2.077.414.064.671.31.767.74.096.43.119.94.071 1.529a24.74 24.74 0 0 1-.215 1.815 10.51 10.51 0 0 0-.144 1.553c.16.86.471 1.529.935 2.006.463.478.983.757 1.558.836.575.08 1.142-.055 1.703-.406.558-.35 1.013-.907 1.366-1.672.031.032.079.048.143.048l.672-6.067c.191-.828.063-1.56-.384-2.197-.448-.637-1.039-1.004-1.774-1.099-.927-1.338-2.182-2.046-3.764-2.126-1.582-.08-3.204.438-4.866 1.553-1.023.733-1.926 1.743-2.709 3.033-.784 1.29-1.422 2.723-1.917 4.3a27.182 27.182 0 0 0-1.055 4.992 26.247 26.247 0 0 0-.121 5.11 20.74 20.74 0 0 0 .888 4.683c.463 1.465 1.11 2.691 1.942 3.678.703.86 1.501 1.49 2.396 1.888.895.398 1.83.644 2.805.74a10.45 10.45 0 0 0 2.901-.12c.959-.174 1.87-.421 2.733-.74a27.25 27.25 0 0 0 3.452-1.577 21.226 21.226 0 0 0 3.404-2.293c.572-.47 1.122-.98 1.654-1.53.242.6.513 1.179.839 1.721a10.166 10.166 0 0 0 3.5 3.488c1.469.891 3.276 1.32 5.417 1.29 2.302-.033 4.427-.613 6.377-1.744 1.95-1.13 3.548-2.795 4.795-4.992 1.867 0 3.704-.307 5.51-.916l-.045.582c-.127 1.688-.192 2.834-.192 3.439a93.543 93.543 0 0 1-.215 3.893 91.165 91.165 0 0 0-.216 4.872 46.89 46.89 0 0 0 .192 5.16c.16 1.735.495 3.312 1.007 4.73.51 1.416 1.237 2.619 2.181 3.607.942.986 2.181 1.576 3.716 1.767 1.63.222 3.036-.064 4.219-.86 1.182-.797 2.141-1.887 2.877-3.272.735-1.386 1.253-2.986 1.558-4.801.303-1.816.391-3.639.264-5.471a20.906 20.906 0 0 0-1.008-5.182c-.543-1.625-1.295-2.962-2.253-4.014.576-.158 1.262-.46 2.062-.907a39.971 39.971 0 0 0 2.469-1.505c.208-.137.413-.281.621-.422-.078 1.129-.118 1.933-.118 2.405a92.052 92.052 0 0 1-.216 3.893 92.257 92.257 0 0 0-.215 4.872 46.644 46.644 0 0 0 .192 5.16c.159 1.735.495 3.312 1.006 4.73.511 1.416 1.239 2.619 2.181 3.607.943.986 2.182 1.576 3.717 1.767 1.629.222 3.035-.064 4.218-.86 1.183-.797 2.142-1.887 2.877-3.272.735-1.386 1.254-2.986 1.558-4.801a23.27 23.27 0 0 0 .264-5.471 20.905 20.905 0 0 0-1.006-5.182c-.545-1.625-1.295-2.962-2.255-4.014.576-.158 1.263-.46 2.062-.907a39.689 39.689 0 0 0 2.47-1.505c.44-.29.877-.588 1.314-.896.164 1.558.518 2.924 1.082 4.073.688 1.402 1.622 2.484 2.805 3.249 1.182.764 2.573 1.186 4.172 1.265 1.598.08 3.339-.215 5.226-.884 1.406-.509 2.628-1.146 3.667-1.91a13.763 13.763 0 0 0 2.805-2.795c.048-.063.093-.132.14-.197.148.447.312.875.507 1.272.688 1.402 1.623 2.484 2.805 3.249 1.182.764 2.573 1.186 4.171 1.265 1.598.08 3.34-.215 5.226-.884 1.407-.509 2.629-1.146 3.668-1.91a13.763 13.763 0 0 0 2.805-2.795c.831-1.099 1.589-2.365 2.277-3.798a64.986 64.986 0 0 0 2.086-4.92c.127-.51.007-.963-.36-1.361Z" clip-rule="evenodd"/>
  </g>
  <defs>
    <clipPath id="a">
      <path fill="#fff" d="M0 0h545v153H0z"/>
    </clipPath>
  </defs>
</svg>
