<svg xmlns="http://www.w3.org/2000/svg" width="545" height="153" fill="none" viewBox="0 0 545 153">
  <g clipPath="url(#a)">
    <path fill="#000" stroke="#009CDE" stroke-width="3" d="M1.5 24.48C1.5 11.789 11.789 1.5 24.48 1.5H520.2c12.692 0 22.98 10.289 22.98 22.98v104.04c0 12.692-10.288 22.98-22.98 22.98H24.48c-12.691 0-22.98-10.288-22.98-22.98V24.48Z"/>
    <path fill="#fff" d="M253.572 85.24c0 5.888-2.446 10.636-7.338 14.244-4.869 3.608-11.687 5.412-20.453 5.412h-4.847L217.215 121h-12.817l11.422-49.44h17.764c3.232 0 6.043.222 8.434.665 2.412.442 4.493 1.206 6.242 2.29 1.726 1.085 3.043 2.502 3.951 4.25.907 1.727 1.361 3.885 1.361 6.475Zm-13.613 1.229c0-1.926-.697-3.354-2.092-4.283-1.394-.93-3.464-1.395-6.209-1.395h-5.146l-3.42 14.809h4.582c3.874 0 6.884-.786 9.031-2.358 2.169-1.594 3.254-3.851 3.254-6.773Zm40.342 16.933c-2.125.177-4.117.388-5.977.631-1.859.244-3.442.598-4.748 1.063-1.35.487-2.379 1.173-3.088 2.058-.708.886-1.062 2.059-1.062 3.52 0 1.284.465 2.191 1.394 2.722.952.51 2.325.764 4.118.764 1.173 0 2.423-.265 3.751-.797a18.485 18.485 0 0 0 3.786-2.092l1.826-7.869Zm-3.155 13.647-2.722 1.76c-1.063.686-2.048 1.228-2.955 1.627-1.24.509-2.402.896-3.487 1.162-1.084.265-2.589.398-4.515.398-3.099 0-5.634-.863-7.604-2.59-1.948-1.748-2.922-4.017-2.922-6.806 0-2.944.698-5.435 2.092-7.471 1.395-2.059 3.464-3.697 6.209-4.914 2.568-1.151 5.623-1.981 9.164-2.49 3.564-.51 7.416-.886 11.555-1.13.022-.132.066-.342.133-.63a4.95 4.95 0 0 0 .099-1.03c0-1.571-.73-2.667-2.191-3.287-1.461-.641-3.641-.962-6.541-.962-1.97 0-4.15.332-6.541.996-2.369.664-4.15 1.217-5.346 1.66h-1.095l1.759-8.832c1.395-.354 3.553-.753 6.475-1.196a58.208 58.208 0 0 1 8.732-.664c5.844 0 10.127.764 12.85 2.291 2.745 1.528 4.117 3.896 4.117 7.106 0 .443-.044 1.018-.133 1.726a12.504 12.504 0 0 1-.299 1.86L288.137 121H276.25l.896-3.951Zm35.661 17.631h-13.116l9.497-14.41-6.143-36.557h12.219l3.22 24.437 14.211-24.437h12.617l-32.505 50.967Zm80.351-49.44c0 5.888-2.446 10.636-7.338 14.244-4.869 3.608-11.687 5.412-20.453 5.412h-4.847L356.801 121h-12.817l11.422-49.44h17.764c3.232 0 6.043.222 8.434.665 2.412.442 4.493 1.206 6.242 2.29 1.726 1.085 3.043 2.502 3.951 4.25.907 1.727 1.361 3.885 1.361 6.475Zm-13.613 1.229c0-1.926-.697-3.354-2.092-4.283-1.394-.93-3.464-1.395-6.209-1.395h-5.146l-3.42 14.809h4.582c3.873 0 6.884-.786 9.031-2.358 2.169-1.594 3.254-3.851 3.254-6.773Zm40.342 16.933c-2.125.177-4.117.388-5.977.631-1.859.244-3.442.598-4.748 1.063-1.35.487-2.379 1.173-3.088 2.058-.708.886-1.062 2.059-1.062 3.52 0 1.284.465 2.191 1.394 2.722.952.51 2.324.764 4.117.764 1.174 0 2.424-.265 3.752-.797a18.485 18.485 0 0 0 3.786-2.092l1.826-7.869Zm-3.155 13.647-2.722 1.76c-1.063.686-2.048 1.228-2.955 1.627-1.24.509-2.402.896-3.487 1.162-1.084.265-2.589.398-4.515.398-3.099 0-5.634-.863-7.604-2.59-1.948-1.748-2.922-4.017-2.922-6.806 0-2.944.698-5.435 2.092-7.471 1.395-2.059 3.464-3.697 6.209-4.914 2.568-1.151 5.623-1.981 9.164-2.49 3.564-.51 7.416-.886 11.555-1.13.022-.132.066-.342.133-.63a4.95 4.95 0 0 0 .099-1.03c0-1.571-.73-2.667-2.191-3.287-1.461-.641-3.641-.962-6.541-.962-1.97 0-4.151.332-6.541.996-2.369.664-4.151 1.217-5.346 1.66h-1.096l1.76-8.832c1.395-.354 3.553-.753 6.475-1.196a58.208 58.208 0 0 1 8.732-.664c5.844 0 10.127.764 12.85 2.291 2.745 1.528 4.117 3.896 4.117 7.106 0 .443-.044 1.018-.133 1.726a12.504 12.504 0 0 1-.299 1.86L427.723 121h-11.887l.896-3.951Zm45.887-47.713L450.666 121h-12.02L450.6 69.336h12.019ZM257.334 33.753c0 2.049-.449 3.906-1.347 5.57-.888 1.666-2.074 2.957-3.557 3.876a11.101 11.101 0 0 1-3.451 1.377c-1.262.283-2.927.424-4.996.424h-5.691V22.461h5.631c2.2 0 3.946.162 5.237.485 1.302.313 2.402.746 3.3 1.302a10.055 10.055 0 0 1 3.587 3.83c.858 1.594 1.287 3.486 1.287 5.675Zm-3.133-.045c0-1.766-.308-3.254-.924-4.465-.615-1.211-1.533-2.165-2.754-2.861a9.207 9.207 0 0 0-2.831-1.045c-.999-.201-2.195-.302-3.587-.302h-2.816v17.392h2.816c1.443 0 2.699-.106 3.769-.318a8.474 8.474 0 0 0 2.966-1.18 6.725 6.725 0 0 0 2.513-2.831c.565-1.17.848-2.634.848-4.39Zm22.78 2.846c0 2.755-.706 4.93-2.119 6.524-1.413 1.594-3.305 2.391-5.676 2.391-2.392 0-4.294-.797-5.707-2.391-1.403-1.595-2.104-3.77-2.104-6.524 0-2.755.701-4.93 2.104-6.524 1.413-1.605 3.315-2.407 5.707-2.407 2.371 0 4.263.802 5.676 2.407 1.413 1.594 2.119 3.769 2.119 6.524Zm-2.937 0c0-2.19-.428-3.815-1.286-4.874-.858-1.07-2.049-1.605-3.572-1.605-1.544 0-2.745.535-3.603 1.605-.848 1.06-1.271 2.684-1.271 4.874 0 2.119.428 3.728 1.286 4.828.858 1.09 2.054 1.635 3.588 1.635 1.513 0 2.699-.54 3.557-1.62.867-1.09 1.301-2.704 1.301-4.843ZM296.159 45h-2.846v-9.627c0-.777-.046-1.503-.136-2.18-.091-.686-.258-1.22-.5-1.604a2.256 2.256 0 0 0-1.09-.939c-.474-.211-1.09-.317-1.846-.317-.777 0-1.59.191-2.437.575-.848.383-1.66.873-2.437 1.468V45h-2.846V28.092h2.846v1.877c.888-.736 1.806-1.312 2.754-1.725a7.242 7.242 0 0 1 2.922-.621c1.826 0 3.219.55 4.178 1.65.958 1.1 1.438 2.684 1.438 4.753V45Zm19.238 0h-2.831v-1.801c-.252.171-.595.413-1.029.726a7.354 7.354 0 0 1-1.241.727 8.175 8.175 0 0 1-1.635.575c-.616.162-1.337.242-2.165.242-1.523 0-2.815-.504-3.875-1.513-1.059-1.01-1.589-2.296-1.589-3.86 0-1.282.272-2.316.817-3.103.555-.797 1.342-1.423 2.362-1.877 1.029-.454 2.265-.762 3.708-.924a74.539 74.539 0 0 1 4.647-.363v-.439c0-.646-.116-1.18-.348-1.604a2.43 2.43 0 0 0-.969-1c-.403-.232-.888-.388-1.453-.469a12.517 12.517 0 0 0-1.771-.12c-.747 0-1.579.1-2.497.302-.919.192-1.867.474-2.846.848h-.151v-2.891c.555-.152 1.357-.318 2.406-.5a18.172 18.172 0 0 1 3.103-.272c1.191 0 2.225.1 3.103.302.888.192 1.655.525 2.301 1a4.463 4.463 0 0 1 1.453 1.8c.333.737.5 1.65.5 2.74V45Zm-2.831-4.163V36.13c-.868.05-1.892.126-3.073.227-1.17.1-2.099.247-2.785.439-.817.232-1.478.595-1.983 1.09-.504.484-.757 1.155-.757 2.013 0 .969.293 1.7.878 2.195.586.484 1.479.726 2.68.726.999 0 1.912-.191 2.739-.575a12.614 12.614 0 0 0 2.301-1.408Zm17.71 4.012c-.535.14-1.121.257-1.756.348a11.95 11.95 0 0 1-1.681.136c-1.725 0-3.037-.464-3.935-1.393-.898-.928-1.347-2.416-1.347-4.465v-8.991h-1.923v-2.392h1.923v-4.859h2.845v4.86h5.874v2.39h-5.874v7.705c0 .889.021 1.585.061 2.09.04.494.182.958.424 1.392.222.404.525.701.908.893.394.182.989.272 1.786.272.464 0 .949-.065 1.453-.196.505-.142.868-.258 1.09-.349h.152v2.559ZM348.5 36.84h-12.458c0 1.04.156 1.948.469 2.725.313.767.742 1.398 1.287 1.892a5.127 5.127 0 0 0 1.862 1.09 7.52 7.52 0 0 0 2.391.363c1.151 0 2.306-.227 3.467-.681 1.17-.464 2.003-.918 2.497-1.362h.152v3.103a23.52 23.52 0 0 1-2.937 1.014 11.92 11.92 0 0 1-3.148.409c-2.806 0-4.996-.757-6.57-2.271-1.574-1.524-2.361-3.683-2.361-6.478 0-2.765.752-4.96 2.255-6.585 1.514-1.625 3.502-2.437 5.964-2.437 2.281 0 4.037.666 5.268 1.998 1.241 1.332 1.862 3.224 1.862 5.676v1.544Zm-2.771-2.18c-.01-1.493-.388-2.648-1.135-3.466-.736-.817-1.862-1.226-3.375-1.226-1.524 0-2.74.45-3.648 1.347-.898.899-1.408 2.014-1.529 3.346h9.687Zm40.49-6.569L381.814 45h-2.634l-4.344-13.033L370.522 45h-2.618l-4.451-16.908h2.967l3.103 13.093 4.223-13.093h2.347l4.329 13.093 2.936-13.093h2.861Zm7.78-2.83h-3.209V22.31h3.209v2.952ZM393.817 45h-2.846V28.092h2.846V45Zm15.03-.151c-.535.14-1.12.257-1.756.348-.625.09-1.185.136-1.68.136-1.725 0-3.037-.464-3.935-1.393-.898-.928-1.348-2.416-1.348-4.465v-8.991h-1.922v-2.392h1.922v-4.859h2.846v4.86h5.873v2.39h-5.873v7.705c0 .889.02 1.585.061 2.09.04.494.181.958.424 1.392.222.404.524.701.908.893.393.182.989.272 1.786.272a5.78 5.78 0 0 0 1.453-.196c.505-.142.868-.258 1.09-.349h.151v2.559Zm18.209.151h-2.846v-9.627c0-.777-.045-1.503-.136-2.18-.091-.686-.257-1.22-.499-1.604a2.265 2.265 0 0 0-1.09-.939c-.475-.211-1.09-.317-1.847-.317-.777 0-1.589.191-2.437.575-.848.383-1.66.873-2.437 1.468V45h-2.846V21.447h2.846v8.522c.888-.736 1.806-1.312 2.755-1.725a7.237 7.237 0 0 1 2.921-.621c1.827 0 3.219.55 4.178 1.65.959 1.1 1.438 2.684 1.438 4.753V45Z"/>
    <path fill="#009CDE" d="M120.009 47.947c1.341-8.559-.007-14.382-4.638-19.654-5.095-5.806-14.3-8.293-26.077-8.293H55.105a4.896 4.896 0 0 0-4.832 4.13l-14.237 90.271a2.935 2.935 0 0 0 2.9 3.393H60.04l-1.458 9.24a2.57 2.57 0 0 0 2.54 2.966h17.792a4.282 4.282 0 0 0 4.226-3.612l.174-.905 3.35-21.251.216-1.175a4.285 4.285 0 0 1 4.226-3.616h2.662c17.234 0 30.729-6.997 34.671-27.251 1.65-8.46.798-15.524-3.559-20.489-1.32-1.497-2.959-2.74-4.872-3.754Z"/>
    <path fill="#012169" d="M120.009 47.947c1.341-8.559-.007-14.382-4.638-19.654-5.095-5.806-14.3-8.293-26.077-8.293H55.105a4.896 4.896 0 0 0-4.832 4.13l-14.237 90.271a2.935 2.935 0 0 0 2.9 3.393H60.04l5.302-33.621-.164 1.057a4.872 4.872 0 0 1 4.815-4.13h10.032c19.7 0 35.125-8.005 39.635-31.152a60.74 60.74 0 0 0 .348-2"/>
    <path fill="#003087" d="M71.041 48.06a4.275 4.275 0 0 1 4.226-3.612h26.801c3.176 0 6.135.21 8.843.646a38.12 38.12 0 0 1 2.257.43 31.156 31.156 0 0 1 3.144.858c1.33.444 2.569.962 3.704 1.565 1.341-8.559-.007-14.382-4.638-19.654C110.276 22.487 101.071 20 89.294 20H55.105a4.896 4.896 0 0 0-4.832 4.13l-14.237 90.271a2.935 2.935 0 0 0 2.9 3.393H60.04l5.302-33.621L71.04 48.06Z"/>
  </g>
  <defs>
    <clipPath id="a">
      <path fill="#fff" d="M0 0h545v153H0z"/>
    </clipPath>
  </defs>
</svg>
